<?xml version="1.0" standalone="no"?>
<!DOCTYPE svg PUBLIC "-//W3C//DTD SVG 20010904//EN"
 "http://www.w3.org/TR/2001/REC-SVG-20010904/DTD/svg10.dtd">
<svg version="1.0" xmlns="http://www.w3.org/2000/svg"
 width="294.000000pt" height="358.000000pt" viewBox="0 0 294.000000 358.000000"
 preserveAspectRatio="xMidYMid meet">

<g transform="translate(0.000000,358.000000) scale(0.100000,-0.100000)"
fill="#000000" stroke="none">
<path d="M132 3258 l3 -112 75 -42 c41 -23 338 -189 660 -368 322 -180 592
-325 601 -323 14 4 282 152 1107 615 l222 124 0 104 c0 56 -4 105 -8 108 -4 2
-84 -38 -177 -90 -94 -53 -291 -163 -440 -246 -148 -83 -342 -192 -430 -241
-88 -49 -188 -105 -221 -124 l-62 -34 -288 162 c-159 89 -456 256 -661 370
-204 115 -374 209 -378 209 -3 0 -4 -50 -3 -112z"/>
<path d="M132 2774 l3 -248 625 -363 c344 -199 643 -372 665 -384 l41 -22 433
252 c238 139 439 255 447 258 12 4 14 -83 14 -611 l0 -616 -29 -18 c-16 -9
-210 -120 -430 -247 l-400 -230 -1 -247 0 -247 228 131 c125 73 416 241 647
374 l420 242 2 1106 c2 730 -1 1106 -7 1106 -6 0 -95 -49 -198 -109 -543 -315
-1118 -644 -1128 -644 -9 0 -1244 707 -1312 751 l-22 15 2 -249z"/>
<path d="M140 1622 l0 -830 288 -165 c158 -91 447 -258 642 -371 l355 -205 3
241 c1 133 -1 245 -5 249 -5 4 -138 83 -298 175 -396 228 -538 312 -553 324
-9 9 -12 106 -12 438 1 235 1 495 1 579 l-1 151 -176 102 c-97 56 -192 111
-210 122 l-34 20 0 -830z"/>
</g>
</svg>
