<?xml version="1.0" standalone="no"?>
<!DOCTYPE svg PUBLIC "-//W3C//DTD SVG 20010904//EN"
 "http://www.w3.org/TR/2001/REC-SVG-20010904/DTD/svg10.dtd">
<svg version="1.0" xmlns="http://www.w3.org/2000/svg"
 width="767.000000pt" height="212.000000pt" viewBox="0 0 767.000000 212.000000"
 preserveAspectRatio="xMidYMid meet">

<g transform="translate(0.000000,212.000000) scale(0.100000,-0.100000)"
fill="#000000" stroke="none">
<path d="M110 1957 l0 -64 380 -212 c209 -117 388 -215 399 -218 11 -3 67 23
147 68 71 39 242 135 379 211 138 77 254 144 258 148 4 4 7 34 5 67 l-3 60
-105 -60 c-58 -32 -233 -131 -389 -218 l-284 -159 -316 177 c-174 97 -341 190
-371 208 -109 64 -100 65 -100 -8z"/>
<path d="M110 1663 l0 -139 386 -222 c212 -122 393 -222 402 -222 10 0 127 63
260 141 134 77 250 143 258 146 12 4 14 -47 14 -360 l0 -365 -127 -74 c-71
-41 -185 -107 -255 -148 l-128 -74 0 -142 0 -142 328 190 c180 105 351 204
380 220 l52 30 0 649 c0 357 -2 649 -5 649 -3 0 -170 -95 -370 -210 -201 -116
-375 -215 -388 -221 -22 -10 -64 12 -401 205 -207 119 -383 219 -391 222 -13
5 -15 -13 -15 -133z"/>
<path d="M120 983 l1 -488 369 -213 c202 -116 373 -212 379 -212 12 0 15 178
5 243 -7 41 1 36 -334 227 -80 46 -153 90 -162 98 -16 13 -18 46 -20 355 l-3
340 -70 41 c-38 23 -91 54 -117 69 l-48 28 0 -488z"/>
<path d="M5650 1416 c0 -21 6 -25 33 -28 l32 -3 3 -94 c2 -77 0 -92 -11 -88
-37 14 -107 18 -146 7 -100 -27 -159 -127 -148 -256 6 -86 38 -148 91 -179 54
-32 100 -32 161 0 l49 24 22 -24 c24 -26 56 -31 98 -15 39 15 33 40 -9 40
l-35 0 0 320 0 320 -70 0 c-68 0 -70 -1 -70 -24z m35 -270 l35 -15 0 -106 c0
-152 -27 -203 -112 -212 -80 -9 -128 55 -128 169 0 136 94 210 205 164z"/>
<path d="M2004 1390 c-144 -21 -229 -115 -204 -223 29 -130 210 -123 210 8 0
21 -5 25 -30 25 -25 0 -30 -4 -30 -23 0 -44 -53 -65 -80 -32 -18 22 -16 90 4
121 23 35 90 64 149 64 l47 0 0 -255 0 -255 -45 0 c-43 0 -45 -1 -45 -30 l0
-30 235 0 235 0 0 80 c0 79 0 80 -25 80 -23 0 -25 -3 -25 -50 l0 -50 -130 0
-130 0 2 258 3 257 35 5 c29 4 35 9 35 30 0 24 -2 25 -80 26 -44 1 -103 -2
-131 -6z"/>
<path d="M3230 1210 c-88 -34 -96 -35 -103 -11 -4 18 -13 21 -61 21 -53 0 -56
-1 -56 -24 0 -21 6 -25 33 -28 l32 -3 0 -175 0 -175 -32 -3 c-27 -3 -33 -7
-33 -28 0 -24 0 -24 105 -24 105 0 105 0 105 24 0 21 -5 25 -37 28 l-38 3 -3
147 -3 147 51 26 c27 14 70 28 94 31 39 6 48 3 70 -19 26 -26 26 -27 26 -187
0 -147 2 -162 20 -180 22 -22 54 -25 94 -10 39 14 34 40 -8 40 l-34 0 -4 163
c-3 107 -9 171 -18 189 -30 62 -111 81 -200 48z"/>
<path d="M6575 1212 c-27 -11 -58 -22 -68 -27 -14 -6 -20 -2 -24 14 -5 18 -13
21 -64 21 -56 0 -59 -1 -59 -24 0 -21 6 -25 33 -28 l32 -3 0 -175 0 -175 -32
-3 c-27 -3 -33 -7 -33 -28 0 -24 1 -24 100 -24 99 0 100 0 100 24 0 21 -6 25
-32 28 l-33 3 -3 135 c-1 74 0 145 3 157 3 15 21 28 60 42 70 26 105 26 133 1
21 -20 22 -29 22 -180 l0 -159 -32 -3 c-25 -2 -33 -8 -33 -23 0 -19 8 -20 108
-23 l107 -3 0 25 c0 21 -5 25 -37 28 l-38 3 -3 156 -2 155 36 17 c60 29 115
32 144 9 25 -20 25 -24 30 -196 5 -191 7 -196 62 -196 73 0 109 46 41 52 l-38
3 -1 155 c-1 171 -12 215 -61 241 -38 21 -120 16 -180 -10 l-51 -23 -30 22
c-40 30 -97 34 -157 12z"/>
<path d="M2670 1209 c-51 -15 -97 -54 -122 -102 -18 -33 -23 -59 -23 -122 0
-63 5 -89 23 -122 44 -83 140 -126 233 -105 65 15 95 36 124 87 71 120 35 299
-70 349 -45 22 -120 28 -165 15z m127 -66 c52 -24 88 -105 80 -179 -11 -104
-69 -160 -159 -152 -84 8 -128 69 -128 175 0 132 100 207 207 156z"/>
<path d="M3697 1206 c-72 -26 -107 -76 -107 -152 0 -29 8 -61 22 -86 l23 -40
-24 -18 c-35 -26 -33 -76 3 -103 l27 -20 -27 -28 c-18 -19 -28 -42 -31 -73 -5
-42 -3 -48 29 -80 43 -43 103 -60 177 -51 113 14 184 65 184 133 0 82 -48 113
-203 133 -97 12 -127 26 -117 52 4 10 28 16 89 19 136 7 193 54 193 158 0 30
-2 62 -5 70 -4 11 5 16 35 20 32 4 41 10 43 28 3 21 0 22 -61 22 -35 0 -86 7
-113 15 -60 18 -88 18 -137 1z m123 -61 c37 -19 50 -43 50 -94 0 -59 -32 -92
-97 -98 -45 -5 -54 -2 -82 23 -97 88 11 230 129 169z m-11 -385 c68 -10 101
-31 101 -65 0 -77 -191 -116 -247 -50 -29 33 -24 58 18 98 32 30 37 31 128 17z"/>
<path d="M4131 1204 c-36 -7 -68 -17 -73 -22 -5 -5 -8 -29 -6 -53 2 -37 7 -45
26 -47 18 -3 22 1 22 21 0 36 20 47 97 54 58 5 72 3 92 -14 20 -16 25 -30 25
-69 l1 -49 -91 -6 c-111 -7 -154 -28 -179 -91 -53 -134 92 -229 219 -143 42
29 56 31 56 10 0 -8 11 -22 25 -31 20 -13 34 -15 68 -8 57 12 64 41 10 46
l-38 3 -2 157 c-2 183 -10 209 -76 239 -49 22 -88 23 -176 3z m187 -266 c4
-36 -22 -74 -73 -103 -51 -30 -98 -32 -125 -5 -28 28 -26 81 3 107 32 29 44
32 122 30 68 -2 70 -3 73 -29z"/>
<path d="M4647 1206 c-48 -18 -83 -49 -110 -101 -31 -57 -31 -183 0 -241 58
-108 178 -142 294 -83 43 21 43 22 29 49 -10 19 -11 19 -53 0 -53 -24 -120
-25 -158 -3 -42 25 -69 87 -69 156 0 102 44 166 122 174 64 7 98 -9 98 -47 0
-25 4 -30 25 -30 24 0 25 3 25 54 0 52 -1 55 -32 65 -55 19 -130 22 -171 7z"/>
<path d="M5020 1202 l-65 -17 -3 -52 c-3 -51 -2 -53 22 -53 22 0 26 5 26 29 0
17 4 32 9 35 5 3 40 9 78 12 63 6 71 5 96 -17 22 -19 28 -34 30 -69 l2 -45
-90 -6 c-143 -9 -200 -54 -192 -152 8 -93 95 -140 192 -103 24 10 49 24 55 32
18 21 38 17 42 -8 4 -32 47 -45 98 -29 49 14 48 34 -1 41 l-34 5 -5 167 -5
167 -29 30 c-50 52 -114 62 -226 33z m198 -264 c4 -32 -48 -95 -95 -114 -73
-31 -123 -8 -123 56 0 68 37 91 140 87 73 -2 75 -3 78 -29z"/>
<path d="M6052 1205 c-52 -16 -67 -28 -100 -80 -38 -59 -43 -180 -12 -253 39
-90 113 -131 214 -117 56 7 126 39 126 58 0 29 -21 34 -58 15 -28 -15 -52 -18
-101 -16 -56 4 -67 8 -92 36 -28 31 -53 97 -43 114 3 4 75 8 160 8 l154 0 0
53 c0 57 -25 121 -58 150 -25 23 -88 46 -122 46 -14 0 -44 -6 -68 -14z m145
-79 c26 -30 38 -68 29 -91 -8 -21 -224 -22 -232 -1 -9 23 27 87 60 108 44 27
112 19 143 -16z"/>
<path d="M7160 1186 c0 -19 6 -25 27 -28 25 -3 31 -13 68 -113 23 -61 56 -154
75 -208 l34 -98 -22 -45 c-28 -58 -74 -87 -124 -78 -33 5 -39 3 -47 -18 -13
-33 2 -43 68 -43 113 0 138 37 245 358 72 214 84 242 104 245 16 3 22 10 22
28 0 25 -1 25 -77 22 -72 -3 -78 -5 -81 -25 -3 -18 2 -23 17 -23 14 0 21 -6
20 -17 -1 -35 -84 -285 -94 -285 -5 0 -31 65 -57 144 -41 123 -45 145 -33 154
8 6 15 21 15 33 0 20 -5 21 -80 21 -78 0 -80 -1 -80 -24z"/>
</g>
</svg>
