<?xml version="1.0" standalone="no"?>
<!DOCTYPE svg PUBLIC "-//W3C//DTD SVG 20010904//EN"
 "http://www.w3.org/TR/2001/REC-SVG-20010904/DTD/svg10.dtd">
<svg version="1.0" xmlns="http://www.w3.org/2000/svg"
 width="619.000000pt" height="403.000000pt" viewBox="0 0 619.000000 403.000000"
 preserveAspectRatio="xMidYMid meet">

<g transform="translate(0.000000,403.000000) scale(0.100000,-0.100000)"
fill="#000000" stroke="none">
<path d="M2052 3693 c3 -76 6 -89 23 -98 25 -13 258 -141 305 -168 19 -11 69
-39 110 -62 41 -23 149 -84 240 -135 91 -51 206 -115 255 -143 50 -28 98 -50
108 -49 9 0 29 10 43 21 15 12 30 21 35 21 4 0 47 23 96 51 153 89 334 189
340 189 4 0 14 6 22 14 9 7 54 34 101 58 47 25 101 55 120 66 47 28 220 123
247 136 21 10 23 18 23 99 l0 89 -87 -48 c-140 -76 -229 -125 -368 -204 -209
-117 -445 -250 -513 -287 -39 -22 -69 -33 -80 -28 -9 3 -78 40 -152 82 -74 42
-191 107 -260 146 -69 38 -154 86 -190 107 -97 56 -412 230 -417 230 -2 0 -2
-39 -1 -87z"/>
<path d="M2050 3313 l0 -188 133 -74 c72 -41 143 -82 157 -91 15 -10 48 -30
75 -44 28 -15 77 -43 110 -63 33 -19 85 -49 115 -66 30 -16 62 -35 70 -41 8
-6 35 -22 60 -35 25 -13 52 -30 61 -37 8 -8 18 -14 22 -14 3 0 56 -29 118 -65
61 -36 112 -65 114 -65 2 0 217 124 353 204 62 36 116 66 121 66 4 0 12 5 19
12 11 11 66 44 165 98 l37 21 -2 -482 -3 -481 -329 -191 -329 -192 -1 -192
c-1 -190 -1 -192 19 -179 11 7 90 53 175 101 85 49 171 98 190 110 56 35 140
83 388 224 l232 133 0 860 c0 777 -2 860 -16 854 -8 -3 -69 -37 -135 -76 -66
-38 -122 -70 -124 -70 -2 0 -39 -21 -82 -47 -109 -65 -158 -93 -403 -232 -118
-68 -229 -131 -245 -141 l-31 -19 -71 42 c-39 23 -95 55 -125 72 -114 64 -212
121 -345 199 -32 18 -107 62 -168 96 -60 35 -154 89 -209 122 -54 32 -103 58
-107 58 -5 0 -9 -84 -9 -187z"/>
<path d="M2060 2425 l0 -645 38 -24 c21 -13 76 -45 123 -70 46 -26 167 -95
269 -154 102 -60 272 -158 378 -220 l192 -111 0 192 -1 192 -141 80 c-144 81
-162 92 -395 229 l-133 78 0 447 c0 245 -4 451 -8 456 -8 12 -122 80 -197 118
-27 14 -67 37 -87 51 l-38 25 0 -644z"/>
<path d="M3650 916 c0 -8 10 -16 23 -18 19 -3 22 -10 25 -55 l3 -53 -64 0
c-69 0 -99 -17 -118 -67 -24 -62 -2 -160 40 -183 26 -13 77 -13 103 1 15 8 26
8 43 -1 25 -13 70 -10 70 5 0 6 -10 11 -22 13 -23 3 -23 4 -23 188 l0 184 -40
0 c-28 0 -40 -4 -40 -14z m34 -169 c16 -11 18 -24 14 -75 -5 -71 -33 -112 -78
-112 -47 0 -63 21 -68 88 -4 55 -2 63 21 86 29 29 81 35 111 13z"/>
<path d="M1445 891 c-71 -17 -113 -68 -100 -120 10 -40 24 -51 64 -51 43 0 61
14 61 47 0 29 -26 30 -33 2 -4 -15 -12 -20 -29 -17 -18 2 -24 10 -26 34 -4 42
35 74 89 74 37 0 38 -1 43 -42 6 -46 6 -96 -1 -195 -5 -62 -5 -63 -35 -63 -19
0 -28 -4 -26 -12 3 -10 44 -14 147 -16 l142 -3 -3 46 c-3 52 -20 64 -28 20
l-5 -30 -75 0 -75 0 0 150 c0 148 0 150 23 153 12 2 22 10 22 18 0 11 -14 14
-62 13 -35 -1 -76 -4 -93 -8z"/>
<path d="M1872 789 c-18 -4 -41 -14 -52 -24 -50 -45 -50 -157 0 -207 24 -24
36 -28 83 -28 90 0 134 53 125 151 -8 82 -72 126 -156 108z m86 -44 c44 -32
45 -132 1 -167 -31 -26 -81 -23 -113 7 -21 20 -26 33 -26 73 0 40 5 54 26 76
31 30 77 35 112 11z"/>
<path d="M2070 775 c0 -8 9 -15 20 -15 19 0 20 -7 20 -100 0 -93 -1 -100 -20
-100 -11 0 -20 -7 -20 -15 0 -12 14 -15 66 -15 48 0 65 3 62 13 -3 6 -14 13
-26 15 -21 3 -22 9 -22 88 l0 85 35 15 c46 19 91 18 99 -2 3 -9 6 -58 6 -110
0 -91 1 -94 24 -100 32 -8 58 -2 64 14 2 7 -6 12 -22 12 l-26 0 0 93 c0 116
-11 137 -74 137 -24 0 -58 -5 -76 -12 -26 -9 -35 -9 -38 0 -6 18 -72 15 -72
-3z"/>
<path d="M2446 769 c-28 -22 -35 -73 -15 -111 8 -14 8 -23 0 -31 -17 -17 -13
-55 7 -66 16 -9 16 -11 0 -23 -16 -13 -21 -32 -19 -75 3 -54 138 -71 199 -26
60 45 28 117 -57 128 -84 11 -101 16 -101 31 0 10 12 14 39 14 43 0 75 11 105
34 13 11 18 28 18 65 0 47 2 51 24 51 15 0 24 6 24 15 0 12 -18 15 -99 15 -84
0 -102 -3 -125 -21z m122 -25 c44 -30 16 -94 -42 -94 -40 1 -66 21 -66 50 0
52 61 77 108 44z m27 -224 c56 -47 -61 -108 -123 -64 -28 19 -28 38 -1 65 17
17 30 20 65 16 24 -2 51 -10 59 -17z"/>
<path d="M2718 783 c-19 -5 -26 -63 -8 -63 6 0 10 6 10 14 0 18 22 26 71 26
30 0 42 -5 55 -25 25 -39 13 -52 -55 -57 -75 -5 -101 -26 -101 -79 0 -21 7
-45 16 -53 20 -20 93 -21 121 -1 18 13 22 13 33 0 14 -17 66 -20 75 -5 3 6 -2
13 -12 17 -29 11 -33 23 -33 111 0 106 -13 123 -97 121 -32 -1 -66 -3 -75 -6z
m138 -144 c11 -19 -31 -63 -69 -73 -57 -15 -90 29 -51 68 18 19 109 22 120 5z"/>
<path d="M3010 760 c-49 -53 -49 -147 0 -200 24 -25 36 -30 77 -30 68 0 93 9
93 32 0 15 -4 18 -17 13 -10 -4 -36 -9 -59 -12 -36 -5 -45 -2 -68 23 -36 40
-37 109 -1 148 31 33 88 36 107 6 19 -29 38 -25 38 9 0 35 -13 41 -87 41 -48
0 -58 -4 -83 -30z"/>
<path d="M3248 783 c-23 -6 -25 -63 -3 -63 8 0 15 7 15 15 0 18 35 28 81 23
24 -2 37 -10 45 -27 19 -37 7 -51 -41 -51 -103 0 -156 -62 -109 -128 18 -27
79 -30 124 -7 25 13 29 13 34 -1 4 -11 17 -14 43 -12 41 3 52 21 16 26 -22 3
-23 8 -23 82 0 80 -11 128 -33 142 -13 8 -120 9 -149 1z m146 -142 c10 -16 -3
-35 -38 -59 -58 -40 -113 -13 -88 42 10 23 17 26 66 26 30 0 57 -4 60 -9z"/>
<path d="M3862 774 c-71 -49 -66 -194 8 -234 42 -23 167 -5 157 23 -4 12 -11
12 -69 0 -43 -8 -76 5 -93 37 -29 57 -25 60 80 60 l95 0 0 32 c0 18 -11 45
-26 65 -23 30 -30 33 -77 33 -31 0 -62 -6 -75 -16z m120 -31 c10 -9 18 -24 18
-35 0 -16 -9 -18 -75 -18 -82 0 -89 7 -50 45 29 29 79 33 107 8z"/>
<path d="M4076 783 c-10 -10 5 -23 25 -23 18 0 19 -8 19 -99 0 -96 -1 -100
-22 -103 -47 -6 -21 -23 40 -26 41 -2 62 1 62 8 0 7 -9 14 -19 17 -26 7 -32
35 -24 115 5 63 7 68 36 78 81 28 97 11 97 -101 0 -83 -1 -88 -22 -91 -46 -6
-16 -23 42 -23 61 0 89 17 38 23 l-28 3 0 89 0 88 31 11 c42 15 74 14 87 -2 6
-7 13 -58 14 -113 l3 -99 34 -3 c45 -5 63 14 28 27 -26 10 -27 12 -27 99 0
121 -11 136 -94 128 -33 -4 -68 -6 -76 -6 -108 6 -240 7 -244 3z"/>
<path d="M4550 780 c0 -6 10 -14 22 -19 14 -5 28 -25 39 -57 9 -27 28 -80 43
-117 24 -64 24 -71 11 -98 -18 -33 -43 -49 -80 -49 -41 0 -25 -24 19 -28 56
-5 85 33 134 176 22 65 44 131 47 145 4 15 13 27 21 27 8 0 14 7 14 15 0 11
-12 15 -45 15 -49 0 -51 -1 -34 -28 9 -14 6 -36 -12 -96 -13 -43 -28 -78 -34
-78 -17 1 -56 134 -50 170 l6 32 -51 0 c-28 0 -50 -5 -50 -10z"/>
<path d="M67 255 c-4 -63 -4 -122 -1 -130 5 -12 30 -15 135 -15 l129 0 0 25
c0 25 0 25 -99 25 -81 0 -100 3 -105 16 -3 9 -6 56 -6 105 0 87 -1 89 -23 89
-23 0 -24 -3 -30 -115z"/>
<path d="M340 240 l0 -130 130 0 130 0 0 25 0 25 -100 0 -100 0 0 25 c0 23 3
25 49 25 41 0 51 4 56 20 10 31 -2 40 -56 40 -42 0 -49 3 -49 20 0 19 7 20
100 20 l100 0 0 30 0 30 -130 0 -130 0 0 -130z"/>
<path d="M720 343 c-6 -15 -17 -44 -25 -63 -8 -19 -25 -65 -39 -103 l-24 -67
26 -7 c16 -4 27 -2 30 6 15 44 111 60 132 21 7 -13 21 -20 40 -20 l29 0 -25
68 c-13 37 -29 76 -34 87 -6 11 -16 38 -23 60 -12 34 -19 40 -45 43 -27 3 -34
-1 -42 -25z m58 -98 c17 -37 15 -45 -11 -45 -33 0 -37 7 -25 41 12 36 21 37
36 4z"/>
<path d="M920 240 l0 -130 29 0 c27 0 30 3 33 37 3 38 3 38 51 41 48 3 48 3
64 -37 14 -36 20 -41 49 -41 l33 0 -19 42 c-13 29 -16 46 -9 54 38 46 23 135
-26 154 -15 6 -67 10 -116 10 l-89 0 0 -130z m191 54 c25 -30 -1 -49 -67 -49
l-59 0 -3 33 -3 32 59 0 c42 0 63 -5 73 -16z"/>
<path d="M1220 367 c-3 -3 -4 -61 -2 -130 3 -113 5 -125 22 -130 10 -3 21 -2
24 1 3 3 6 45 6 94 0 64 3 88 13 87 6 0 39 -17 72 -37 60 -37 60 -38 65 -92 5
-51 7 -55 30 -55 l25 0 0 130 0 130 -27 3 c-27 3 -28 1 -28 -37 0 -23 -3 -41
-6 -41 -3 0 -33 16 -67 36 -57 34 -116 52 -127 41z"/>
<path d="M1765 237 l0 -132 25 0 c23 0 25 5 30 50 l5 50 53 3 c51 3 53 4 50
30 -3 25 -7 27 -55 30 -45 3 -53 6 -53 23 0 18 8 19 99 19 91 0 100 2 106 20
3 11 3 24 0 30 -4 6 -59 10 -133 10 l-127 0 0 -133z"/>
<path d="M2042 238 l3 -133 25 0 c22 0 25 5 28 37 l3 38 52 0 c50 0 53 -2 72
-38 15 -27 28 -38 48 -40 32 -4 33 4 10 53 -16 33 -16 37 0 64 26 45 22 88
-12 122 -29 28 -32 29 -131 29 l-101 0 3 -132z m196 40 c4 -32 -18 -41 -89
-36 -42 3 -44 5 -47 36 l-3 33 68 -3 c66 -3 68 -4 71 -30z"/>
<path d="M2369 341 c-27 -27 -29 -35 -29 -106 0 -69 2 -78 26 -100 24 -22 36
-25 100 -25 62 0 77 3 100 24 26 22 28 28 26 97 -1 41 -4 81 -7 89 -9 30 -60
50 -125 50 -55 0 -65 -3 -91 -29z m159 -43 c14 -14 16 -77 2 -112 -8 -23 -15
-26 -59 -26 -63 0 -81 17 -81 75 0 26 6 50 16 59 19 19 104 22 122 4z"/>
<path d="M2632 238 l3 -133 25 0 c24 0 25 2 28 83 2 45 7 82 12 82 5 0 17 -11
26 -25 21 -32 41 -32 71 1 13 14 27 23 30 20 4 -3 7 -41 7 -84 1 -76 1 -77 29
-80 l27 -3 0 135 0 136 -25 0 c-15 0 -42 -15 -65 -37 l-41 -36 -37 36 c-25 24
-47 37 -65 37 l-28 0 3 -132z"/>
<path d="M3180 240 l0 -130 130 0 130 0 0 25 0 25 -100 0 -100 0 0 25 c0 23 3
25 50 25 49 0 50 1 50 30 0 29 -1 30 -50 30 -43 0 -50 3 -50 20 0 19 7 20 100
20 l100 0 0 30 0 30 -130 0 -130 0 0 -130z"/>
<path d="M3470 363 c0 -7 57 -158 90 -240 9 -23 35 -30 55 -15 9 6 105 241
105 256 0 4 -13 6 -28 6 -26 0 -31 -6 -58 -76 -16 -42 -33 -76 -39 -75 -5 0
-24 33 -40 73 -26 63 -34 73 -58 76 -15 2 -27 0 -27 -5z"/>
<path d="M3750 240 l0 -130 130 0 130 0 0 25 0 25 -100 0 -100 0 0 25 c0 23 3
25 50 25 49 0 50 1 50 30 0 29 -1 30 -50 30 -43 0 -50 3 -50 20 0 19 7 20 100
20 l100 0 0 30 0 30 -130 0 -130 0 0 -130z"/>
<path d="M4055 358 c-3 -8 -4 -68 -3 -134 l3 -119 25 0 c22 0 26 5 30 40 5 40
5 40 52 43 46 3 47 2 69 -40 27 -54 22 -50 52 -43 25 7 25 7 10 45 -14 35 -14
43 1 79 18 47 12 92 -16 118 -27 24 -215 33 -223 11z m179 -54 c20 -8 21 -38
2 -53 -8 -7 -37 -11 -68 -9 -52 3 -53 4 -56 36 l-3 32 55 0 c30 0 61 -3 70 -6z"/>
<path d="M4336 358 c5 -7 12 -17 16 -23 50 -61 81 -112 83 -134 1 -14 3 -43 3
-64 2 -34 5 -38 25 -35 20 3 23 10 27 69 5 59 10 71 53 130 l48 64 -32 3 c-27
3 -38 -3 -66 -35 l-33 -38 -31 38 c-25 30 -38 37 -66 37 -25 0 -32 -3 -27 -12z"/>
<path d="M4610 355 c0 -8 9 -55 19 -103 11 -48 21 -100 23 -117 3 -27 6 -30
33 -27 16 2 34 11 41 20 10 14 12 14 21 -2 7 -12 19 -17 38 -14 27 3 29 7 50
98 39 171 39 160 5 160 -31 0 -34 -6 -45 -80 -12 -85 -14 -88 -40 -56 -22 28
-23 28 -30 7 -15 -48 -37 -14 -50 77 -6 49 -8 52 -36 52 -19 0 -29 -5 -29 -15z"/>
<path d="M4900 240 l0 -130 30 0 c29 0 30 1 30 50 l0 50 70 0 70 0 0 -48 c0
-57 2 -61 35 -54 l25 4 0 129 0 129 -30 0 c-29 0 -30 -1 -30 -50 l0 -50 -70 0
-70 0 0 50 c0 49 -1 50 -30 50 l-30 0 0 -130z"/>
<path d="M5207 363 c-4 -3 -7 -62 -7 -130 l0 -123 130 0 130 0 0 25 0 25 -101
0 c-98 0 -100 0 -97 23 3 19 10 22 56 25 51 3 53 4 50 30 -3 25 -7 27 -55 30
-45 3 -53 6 -53 23 0 18 8 19 100 19 l100 0 0 30 0 30 -123 0 c-68 0 -127 -3
-130 -7z"/>
<path d="M5510 368 c-2 -25 -3 -203 -2 -230 2 -33 5 -38 27 -38 22 0 25 4 25
39 0 41 11 51 56 51 38 0 61 -16 72 -50 9 -25 17 -30 41 -30 36 0 36 -1 14 45
-16 33 -16 37 0 64 26 45 22 88 -12 122 -28 28 -33 29 -125 29 -53 0 -96 -1
-96 -2z m187 -74 c13 -33 -11 -49 -73 -49 -49 0 -59 3 -62 18 -8 38 5 47 68
47 47 0 62 -4 67 -16z"/>
<path d="M5800 240 l0 -130 130 0 130 0 0 25 c0 25 0 25 -99 25 -81 0 -100 3
-105 16 -10 26 3 34 55 34 48 0 49 1 49 30 0 29 -1 30 -50 30 -43 0 -50 3 -50
20 0 19 7 20 100 20 l100 0 0 30 0 30 -130 0 -130 0 0 -130z"/>
</g>
</svg>
